<mxfile host="app.diagrams.net" modified="2021-08-16T03:47:25.844Z" agent="5.0 (X11; Linux x86_64) AppleWebKit/537.36 (KHTML, like Gecko) Chrome/86.0.4240.75 Safari/537.36" etag="koIeA9B1M0QxVG_2v2Oz" version="14.9.6" type="github">
  <diagram id="C5RBs43oDa-KdzZeNtuy" name="Page-1">
    <mxGraphModel dx="796" dy="494" grid="1" gridSize="10" guides="1" tooltips="1" connect="1" arrows="1" fold="1" page="1" pageScale="1" pageWidth="827" pageHeight="1169" math="0" shadow="0">
      <root>
        <mxCell id="WIyWlLk6GJQsqaUBKTNV-0" />
        <mxCell id="WIyWlLk6GJQsqaUBKTNV-1" parent="WIyWlLk6GJQsqaUBKTNV-0" />
        <mxCell id="K4MHxmMJYX7Ft-FRh3c--2" value="" style="edgeStyle=orthogonalEdgeStyle;rounded=0;orthogonalLoop=1;jettySize=auto;html=1;" edge="1" parent="WIyWlLk6GJQsqaUBKTNV-1" source="K4MHxmMJYX7Ft-FRh3c--0" target="K4MHxmMJYX7Ft-FRh3c--1">
          <mxGeometry relative="1" as="geometry" />
        </mxCell>
        <mxCell id="K4MHxmMJYX7Ft-FRh3c--0" value="Start" style="strokeWidth=2;html=1;shape=mxgraph.flowchart.start_2;whiteSpace=wrap;fillColor=#d5e8d4;strokeColor=#82b366;" vertex="1" parent="WIyWlLk6GJQsqaUBKTNV-1">
          <mxGeometry x="30" y="480" width="60" height="60" as="geometry" />
        </mxCell>
        <mxCell id="K4MHxmMJYX7Ft-FRh3c--8" value="" style="edgeStyle=orthogonalEdgeStyle;rounded=0;orthogonalLoop=1;jettySize=auto;html=1;" edge="1" parent="WIyWlLk6GJQsqaUBKTNV-1" source="K4MHxmMJYX7Ft-FRh3c--1" target="K4MHxmMJYX7Ft-FRh3c--7">
          <mxGeometry relative="1" as="geometry" />
        </mxCell>
        <mxCell id="K4MHxmMJYX7Ft-FRh3c--16" value="" style="edgeStyle=orthogonalEdgeStyle;rounded=0;orthogonalLoop=1;jettySize=auto;html=1;" edge="1" parent="WIyWlLk6GJQsqaUBKTNV-1" source="K4MHxmMJYX7Ft-FRh3c--1" target="K4MHxmMJYX7Ft-FRh3c--15">
          <mxGeometry relative="1" as="geometry" />
        </mxCell>
        <mxCell id="K4MHxmMJYX7Ft-FRh3c--1" value="Existing User?" style="rhombus;whiteSpace=wrap;html=1;strokeWidth=2;fillColor=#dae8fc;strokeColor=#6c8ebf;" vertex="1" parent="WIyWlLk6GJQsqaUBKTNV-1">
          <mxGeometry x="145" y="470" width="115" height="80" as="geometry" />
        </mxCell>
        <mxCell id="K4MHxmMJYX7Ft-FRh3c--3" value="&lt;h1&gt;Profile&lt;/h1&gt;&lt;p&gt;&lt;br&gt;&lt;/p&gt;" style="text;html=1;strokeColor=none;fillColor=none;spacing=5;spacingTop=-20;whiteSpace=wrap;overflow=hidden;rounded=0;" vertex="1" parent="WIyWlLk6GJQsqaUBKTNV-1">
          <mxGeometry x="30" y="70" width="180" height="80" as="geometry" />
        </mxCell>
        <mxCell id="K4MHxmMJYX7Ft-FRh3c--6" value="Yes" style="text;html=1;align=center;verticalAlign=middle;resizable=0;points=[];autosize=1;strokeColor=none;" vertex="1" parent="WIyWlLk6GJQsqaUBKTNV-1">
          <mxGeometry x="270" y="490" width="40" height="20" as="geometry" />
        </mxCell>
        <mxCell id="K4MHxmMJYX7Ft-FRh3c--27" value="" style="edgeStyle=orthogonalEdgeStyle;rounded=0;orthogonalLoop=1;jettySize=auto;html=1;" edge="1" parent="WIyWlLk6GJQsqaUBKTNV-1" source="K4MHxmMJYX7Ft-FRh3c--7" target="K4MHxmMJYX7Ft-FRh3c--26">
          <mxGeometry relative="1" as="geometry" />
        </mxCell>
        <mxCell id="K4MHxmMJYX7Ft-FRh3c--41" value="" style="edgeStyle=orthogonalEdgeStyle;rounded=0;orthogonalLoop=1;jettySize=auto;html=1;" edge="1" parent="WIyWlLk6GJQsqaUBKTNV-1" source="K4MHxmMJYX7Ft-FRh3c--7" target="K4MHxmMJYX7Ft-FRh3c--40">
          <mxGeometry relative="1" as="geometry" />
        </mxCell>
        <mxCell id="K4MHxmMJYX7Ft-FRh3c--7" value="Create Profile" style="rounded=1;whiteSpace=wrap;html=1;absoluteArcSize=1;arcSize=14;strokeWidth=2;fillColor=#dae8fc;strokeColor=#6c8ebf;" vertex="1" parent="WIyWlLk6GJQsqaUBKTNV-1">
          <mxGeometry x="158.75" y="330" width="87.5" height="80" as="geometry" />
        </mxCell>
        <mxCell id="K4MHxmMJYX7Ft-FRh3c--9" value="No" style="text;html=1;align=center;verticalAlign=middle;resizable=0;points=[];autosize=1;strokeColor=none;" vertex="1" parent="WIyWlLk6GJQsqaUBKTNV-1">
          <mxGeometry x="170" y="440" width="30" height="20" as="geometry" />
        </mxCell>
        <mxCell id="K4MHxmMJYX7Ft-FRh3c--23" value="" style="edgeStyle=orthogonalEdgeStyle;rounded=0;orthogonalLoop=1;jettySize=auto;html=1;" edge="1" parent="WIyWlLk6GJQsqaUBKTNV-1" source="K4MHxmMJYX7Ft-FRh3c--15" target="K4MHxmMJYX7Ft-FRh3c--22">
          <mxGeometry relative="1" as="geometry" />
        </mxCell>
        <mxCell id="K4MHxmMJYX7Ft-FRh3c--15" value="Login" style="whiteSpace=wrap;html=1;strokeWidth=2;fillColor=#dae8fc;strokeColor=#6c8ebf;" vertex="1" parent="WIyWlLk6GJQsqaUBKTNV-1">
          <mxGeometry x="337.5" y="480" width="120" height="60" as="geometry" />
        </mxCell>
        <mxCell id="K4MHxmMJYX7Ft-FRh3c--30" value="" style="edgeStyle=orthogonalEdgeStyle;rounded=0;orthogonalLoop=1;jettySize=auto;html=1;" edge="1" parent="WIyWlLk6GJQsqaUBKTNV-1" source="K4MHxmMJYX7Ft-FRh3c--22" target="K4MHxmMJYX7Ft-FRh3c--29">
          <mxGeometry relative="1" as="geometry" />
        </mxCell>
        <mxCell id="K4MHxmMJYX7Ft-FRh3c--22" value="Check in" style="whiteSpace=wrap;html=1;strokeColor=#6c8ebf;strokeWidth=2;fillColor=#dae8fc;" vertex="1" parent="WIyWlLk6GJQsqaUBKTNV-1">
          <mxGeometry x="537.5" y="480" width="120" height="60" as="geometry" />
        </mxCell>
        <mxCell id="K4MHxmMJYX7Ft-FRh3c--28" value="" style="edgeStyle=orthogonalEdgeStyle;rounded=0;orthogonalLoop=1;jettySize=auto;html=1;" edge="1" parent="WIyWlLk6GJQsqaUBKTNV-1" source="K4MHxmMJYX7Ft-FRh3c--26" target="K4MHxmMJYX7Ft-FRh3c--15">
          <mxGeometry relative="1" as="geometry" />
        </mxCell>
        <mxCell id="K4MHxmMJYX7Ft-FRh3c--26" value="Verify Email&lt;br&gt;Verify Phone number" style="rounded=1;whiteSpace=wrap;html=1;strokeColor=#6c8ebf;strokeWidth=2;fillColor=#dae8fc;arcSize=14;" vertex="1" parent="WIyWlLk6GJQsqaUBKTNV-1">
          <mxGeometry x="337.5" y="330" width="120" height="80" as="geometry" />
        </mxCell>
        <mxCell id="K4MHxmMJYX7Ft-FRh3c--29" value="Unlock all Features" style="whiteSpace=wrap;html=1;strokeColor=#6c8ebf;strokeWidth=2;fillColor=#dae8fc;" vertex="1" parent="WIyWlLk6GJQsqaUBKTNV-1">
          <mxGeometry x="737.5" y="480" width="120" height="60" as="geometry" />
        </mxCell>
        <mxCell id="K4MHxmMJYX7Ft-FRh3c--37" value="" style="edgeStyle=orthogonalEdgeStyle;rounded=0;orthogonalLoop=1;jettySize=auto;html=1;" edge="1" parent="WIyWlLk6GJQsqaUBKTNV-1" source="K4MHxmMJYX7Ft-FRh3c--33" target="K4MHxmMJYX7Ft-FRh3c--36">
          <mxGeometry relative="1" as="geometry" />
        </mxCell>
        <mxCell id="K4MHxmMJYX7Ft-FRh3c--33" value="Update Profile" style="rounded=1;whiteSpace=wrap;html=1;fillColor=#dae8fc;strokeColor=#6c8ebf;" vertex="1" parent="WIyWlLk6GJQsqaUBKTNV-1">
          <mxGeometry x="537.5" y="600" width="120" height="60" as="geometry" />
        </mxCell>
        <mxCell id="K4MHxmMJYX7Ft-FRh3c--44" value="" style="edgeStyle=orthogonalEdgeStyle;rounded=0;orthogonalLoop=1;jettySize=auto;html=1;" edge="1" parent="WIyWlLk6GJQsqaUBKTNV-1" source="K4MHxmMJYX7Ft-FRh3c--34" target="K4MHxmMJYX7Ft-FRh3c--43">
          <mxGeometry relative="1" as="geometry" />
        </mxCell>
        <mxCell id="K4MHxmMJYX7Ft-FRh3c--34" value="Booking History" style="rounded=1;whiteSpace=wrap;html=1;fillColor=#dae8fc;strokeColor=#6c8ebf;" vertex="1" parent="WIyWlLk6GJQsqaUBKTNV-1">
          <mxGeometry x="537.5" y="720" width="120" height="60" as="geometry" />
        </mxCell>
        <mxCell id="K4MHxmMJYX7Ft-FRh3c--35" value="" style="endArrow=classic;html=1;exitX=0.5;exitY=1;exitDx=0;exitDy=0;entryX=0;entryY=0.5;entryDx=0;entryDy=0;" edge="1" parent="WIyWlLk6GJQsqaUBKTNV-1" source="K4MHxmMJYX7Ft-FRh3c--15" target="K4MHxmMJYX7Ft-FRh3c--33">
          <mxGeometry width="50" height="50" relative="1" as="geometry">
            <mxPoint x="550" y="640" as="sourcePoint" />
            <mxPoint x="600" y="590" as="targetPoint" />
            <Array as="points">
              <mxPoint x="398" y="630" />
            </Array>
          </mxGeometry>
        </mxCell>
        <mxCell id="K4MHxmMJYX7Ft-FRh3c--36" value="Validate" style="whiteSpace=wrap;html=1;rounded=1;strokeColor=#6c8ebf;fillColor=#dae8fc;" vertex="1" parent="WIyWlLk6GJQsqaUBKTNV-1">
          <mxGeometry x="737.5" y="600" width="120" height="60" as="geometry" />
        </mxCell>
        <mxCell id="K4MHxmMJYX7Ft-FRh3c--38" value="End" style="strokeWidth=2;html=1;shape=mxgraph.flowchart.start_2;whiteSpace=wrap;fillColor=#f8cecc;strokeColor=#b85450;" vertex="1" parent="WIyWlLk6GJQsqaUBKTNV-1">
          <mxGeometry x="960" y="480" width="60" height="60" as="geometry" />
        </mxCell>
        <mxCell id="K4MHxmMJYX7Ft-FRh3c--39" value="" style="endArrow=classic;html=1;entryX=0.5;entryY=1;entryDx=0;entryDy=0;entryPerimeter=0;" edge="1" parent="WIyWlLk6GJQsqaUBKTNV-1" target="K4MHxmMJYX7Ft-FRh3c--38">
          <mxGeometry width="50" height="50" relative="1" as="geometry">
            <mxPoint x="860" y="630" as="sourcePoint" />
            <mxPoint x="990" y="550" as="targetPoint" />
            <Array as="points">
              <mxPoint x="990" y="630" />
            </Array>
          </mxGeometry>
        </mxCell>
        <mxCell id="K4MHxmMJYX7Ft-FRh3c--40" value="Select Preferences" style="whiteSpace=wrap;html=1;rounded=1;strokeColor=#6c8ebf;strokeWidth=2;fillColor=#dae8fc;arcSize=14;" vertex="1" parent="WIyWlLk6GJQsqaUBKTNV-1">
          <mxGeometry x="160" y="220" width="90" height="60" as="geometry" />
        </mxCell>
        <mxCell id="K4MHxmMJYX7Ft-FRh3c--42" value="" style="endArrow=classic;html=1;exitX=1;exitY=0.5;exitDx=0;exitDy=0;entryX=0;entryY=0.5;entryDx=0;entryDy=0;entryPerimeter=0;" edge="1" parent="WIyWlLk6GJQsqaUBKTNV-1" source="K4MHxmMJYX7Ft-FRh3c--29" target="K4MHxmMJYX7Ft-FRh3c--38">
          <mxGeometry width="50" height="50" relative="1" as="geometry">
            <mxPoint x="880" y="540" as="sourcePoint" />
            <mxPoint x="930" y="490" as="targetPoint" />
          </mxGeometry>
        </mxCell>
        <mxCell id="K4MHxmMJYX7Ft-FRh3c--43" value="View past stay&lt;br&gt;and activities" style="whiteSpace=wrap;html=1;rounded=1;fillColor=#dae8fc;strokeColor=#6c8ebf;" vertex="1" parent="WIyWlLk6GJQsqaUBKTNV-1">
          <mxGeometry x="737.5" y="720" width="120" height="60" as="geometry" />
        </mxCell>
      </root>
    </mxGraphModel>
  </diagram>
</mxfile>
